<svg width="60" height="60" viewBox="0 0 60 60" fill="none" xmlns="http://www.w3.org/2000/svg">
<path d="M26 2.3094C28.4752 0.880338 31.5248 0.880339 34 2.3094L51.9808 12.6906C54.456 14.1197 55.9808 16.7607 55.9808 19.6188V40.3812C55.9808 43.2393 54.456 45.8803 51.9808 47.3094L34 57.6906C31.5248 59.1197 28.4752 59.1197 26 57.6906L8.01924 47.3094C5.54403 45.8803 4.01924 43.2393 4.01924 40.3812V19.6188C4.01924 16.7607 5.54403 14.1197 8.01924 12.6906L26 2.3094Z" fill="#DFDFE1"/>
<path d="M26 8.3094C28.4752 6.88034 31.5248 6.88034 34 8.3094L46.7846 15.6906C49.2598 17.1197 50.7846 19.7607 50.7846 22.6188V37.3812C50.7846 40.2393 49.2598 42.8803 46.7846 44.3094L34 51.6906C31.5248 53.1197 28.4752 53.1197 26 51.6906L13.2154 44.3094C10.7402 42.8803 9.21539 40.2393 9.21539 37.3812V22.6188C9.21539 19.7607 10.7402 17.1197 13.2154 15.6906L26 8.3094Z" fill="white"/>
<path d="M37.5939 31.2344C38.1058 27.6688 39.1638 23.6231 40.5631 19.0974C40.5631 19.0974 40.1877 18.6174 40.1536 18.0003C40.1536 18.0003 38.5495 17.966 36.57 18.6175C36.57 18.6175 32.5768 26.8459 26.4676 31.3716C22.7133 31.7144 20.5631 32.023 20.5631 32.023C26.9113 28.1145 30.8362 25.7488 31.6894 23.6574C32.884 20.7431 30.529 19.2346 30.529 19.2346C26.9113 16.9375 17.4573 23.6574 17.4573 23.6574C17.9693 25.3716 18.7884 26.1259 18.7884 26.1259C27.7986 19.3717 30.2218 21.806 28.0375 23.8974C26.5017 25.3716 19.5051 29.4173 15 31.7144L16.9113 35.4515C22.2355 34.4915 28.8567 33.8401 33.942 33.703C33.8737 35.6915 33.5665 38.7086 33.1911 42L37.2526 40.5257C37.116 38.4 37.116 36.1372 37.3549 33.7373C40.4266 33.7373 42.6792 33.9087 43.8396 34.0801L45 31.4744C42.5085 31.3373 39.9147 31.2687 37.5939 31.2344ZM34.0102 31.1659C33.7031 31.1659 29.6075 31.303 30.0853 31.303C30.529 31.303 34.8976 26.0573 34.8976 26.0573C34.8976 26.0573 34.2833 29.1087 34.0102 31.1659Z" fill="#242430"/>
</svg>
