<?xml version="1.0" encoding="UTF-8" standalone="no"?>
<svg width="42px" height="54px" viewBox="0 0 42 54" version="1.1" xmlns="http://www.w3.org/2000/svg" xmlns:xlink="http://www.w3.org/1999/xlink">
    <!-- Generator: Sketch 42 (36781) - http://www.bohemiancoding.com/sketch -->
    <title>logo</title>
    <desc>Created with Sketch.</desc>
    <defs></defs>
    <g id="Page-1" stroke="none" stroke-width="1" fill="none" fill-rule="evenodd">
        <g id="Artboard" transform="translate(-12.000000, -12.000000)" fill="#222222">
            <path d="M50.6821265,55.8997109 L43.4127976,55.9128414 L43.4127976,62.6991327 L39.3063551,62.6991327 L39.3063551,55.9143004 L19.3998316,55.9143004 L23.3297609,51.9299165 L39.3063551,51.9299165 L39.3063551,46.6850026 L43.4127976,42.5394051 L43.4127976,51.9299165 L50.6821265,51.9299165 L50.6821265,55.8997109 Z M15.9764807,48.6283198 L38.1791105,26.043093 C38.936108,25.2844406 39.3192707,24.2719315 39.3192707,23.0325561 C39.3192707,19.2852511 38.4151789,19.2852511 35.4194778,19.2852511 L28.3503407,19.2852511 C23.2214134,19.2852511 20.9324825,20.2437792 20.9324825,25.9263772 L20.9324825,26.5836328 L18.0867458,26.5836328 L18.0867458,26.5967633 L16.707647,26.5967633 C17.1109007,20.4290655 16.6043222,15.3008673 26.2737996,15.3008673 L38.070763,15.3008673 C41.0162368,15.3008673 43.4127976,17.7343906 43.4127976,20.7252317 L43.4127976,24.8671818 C43.4127976,26.1342771 42.9241575,27.3371788 42.0329813,28.2577743 L21.9894089,48.6283198 L15.9764807,48.6283198 Z M46.6531776,48.6283198 L46.6531776,34.7493583 C46.6531776,34.702672 46.6251938,34.6844352 46.5893171,34.6844352 C46.5685087,34.6844352 46.543395,34.6910005 46.5211515,34.7012131 L36.5008003,44.8817443 C36.2202449,45.1728041 36.0659752,45.5499419 36.0659752,45.946046 L36.0659752,48.6283198 L26.5816214,48.6283198 L43.8397299,31.0903196 C45.6536538,29.2338097 46.6531776,26.7762138 46.6531776,24.1705347 L46.6531776,19.850593 C46.6531776,15.5218977 43.1917974,12 38.9375431,12 L24.7224929,12 C18.1419959,12 13.5469133,16.6664415 13.5461957,23.3841623 L13.4112995,26.5967633 L13.4112995,29.9034663 L16.793751,29.9034663 L16.793751,29.8903358 L24.2252424,29.8903358 L24.2309826,26.4384676 C24.2309826,22.8757193 26.313264,22.5861184 28.8289354,22.5861184 L34.4687463,22.5861184 C34.9035714,22.5861184 35.2888868,22.8509172 35.4496142,23.2594224 C35.6060364,23.6599033 35.509887,24.1092589 35.2164159,24.3922946 L12.8085716,47.166455 C11.8513823,48.1424905 11.8736259,49.3796774 12.2137366,50.2120066 C12.5524123,51.0428768 13.3969488,51.9299165 14.7502165,51.9299165 L18.749029,51.9299165 L12.9470555,57.8291681 C12.5940292,58.1822333 12.720315,58.5907384 12.7676722,58.7081836 C12.8157469,58.8270878 13.010916,59.2151676 13.5146243,59.2151676 L36.0659752,59.2151676 L36.0659752,66 L46.6531776,66 L46.6531776,59.2158971 L54,59.2020371 L54,48.6283198 L46.6531776,48.6283198 Z" id="logo"></path>
        </g>
    </g>
</svg>